<svg width="100px" height="100px" version="1.1" id="Layer_1" xmlns="http://www.w3.org/2000/svg" xmlns:xlink="http://www.w3.org/1999/xlink" x="10px" y="10px"
	 viewBox="0 0 521 520" enable-background="new 0 0 521 520" xml:space="preserve">
<path fill="#000000" opacity="1.000000" stroke="none"
	d="
M290.000000,521.000000
	C193.356415,521.000000 97.212845,521.000000 1.034633,521.000000
	C1.034633,347.731384 1.034633,174.462738 1.034633,1.097055
	C174.560211,1.097055 348.120514,1.097055 521.840393,1.097055
	C521.840393,174.333221 521.840393,347.666595 521.840393,521.000000
	C444.796112,521.000000 367.648041,521.000000 290.000000,521.000000
M311.441040,73.058632
	C294.110321,55.570034 276.779602,38.081436 259.598846,20.744164
	C239.224121,41.161068 219.393875,61.032368 199.501068,80.966347
	C199.882797,81.384911 200.526123,82.149689 201.230164,82.853760
	C253.405960,135.031586 305.569275,187.221954 357.853363,239.291031
	C359.364746,240.796188 362.156891,241.716187 364.356537,241.724915
	C401.345886,241.871658 438.335938,241.829880 475.325867,241.829956
	C476.559143,241.829956 477.792389,241.829956 480.228210,241.829956
	C423.527740,185.125244 367.741486,129.334793 311.441040,73.058632
M211.051865,438.448334
	C226.869217,454.362518 242.686569,470.276672 258.481812,486.168579
	C332.222778,412.236633 405.534698,338.734833 479.049377,265.029755
	C477.555481,265.029755 475.967224,265.029755 474.378967,265.029755
	C437.901978,265.029785 401.424835,265.072937 364.948181,264.959473
	C361.506866,264.948792 359.161407,266.023438 356.743195,268.449463
	C313.723480,311.608368 270.622406,354.686310 227.502365,397.745117
	C217.994461,407.239563 208.346497,416.593750 198.558640,426.213379
	C202.938904,430.500763 206.744308,434.225464 211.051865,438.448334
M207.982254,191.482330
	C222.031067,177.359604 236.079880,163.236862 249.956467,149.287231
	C229.787033,129.074783 210.047516,109.293182 191.100891,90.306160
	C140.445129,140.626022 89.730263,191.004593 38.899502,241.498291
	C39.352074,241.613174 39.779243,241.816406 40.206493,241.816589
	C78.510887,241.832581 116.815384,241.864441 155.119324,241.730469
	C156.822556,241.724518 158.897873,240.578979 160.163559,239.322998
	C176.000458,223.607224 191.719711,207.772919 207.982254,191.482330
M244.192444,360.688690
	C245.960648,359.170105 247.728867,357.651550 249.613052,356.033386
	C248.256088,354.503265 247.445251,353.474823 246.520081,352.562317
	C217.700958,324.138123 188.903000,295.692169 159.950790,267.404083
	C158.433151,265.921265 155.592972,265.142059 153.364410,265.133789
	C116.545303,264.996948 79.725548,265.036438 42.905930,265.036407
	C41.508228,265.036407 40.110527,265.036377 37.599327,265.036377
	C88.716438,315.722961 138.937454,365.520996 189.462906,415.620911
	C207.731750,397.283691 225.711929,379.236237 244.192444,360.688690
z"/>
<path fill="#F1F1F1" opacity="1.000000" stroke="none"
	d="
M311.698120,73.301483
	C367.741486,129.334793 423.527740,185.125244 480.228210,241.829956
	C477.792389,241.829956 476.559143,241.829956 475.325867,241.829956
	C438.335938,241.829880 401.345886,241.871658 364.356537,241.724915
	C362.156891,241.716187 359.364746,240.796188 357.853363,239.291031
	C305.569275,187.221954 253.405960,135.031586 201.230164,82.853760
	C200.526123,82.149689 199.882797,81.384911 199.501068,80.966347
	C219.393875,61.032368 239.224121,41.161068 259.598846,20.744164
	C276.779602,38.081436 294.110321,55.570034 311.698120,73.301483
z"/>
<path fill="#F1F1F1" opacity="1.000000" stroke="none"
	d="
M210.800797,438.199280
	C206.744308,434.225464 202.938904,430.500763 198.558640,426.213379
	C208.346497,416.593750 217.994461,407.239563 227.502365,397.745117
	C270.622406,354.686310 313.723480,311.608368 356.743195,268.449463
	C359.161407,266.023438 361.506866,264.948792 364.948181,264.959473
	C401.424835,265.072937 437.901978,265.029785 474.378967,265.029755
	C475.967224,265.029755 477.555481,265.029755 479.049377,265.029755
	C405.534698,338.734833 332.222778,412.236633 258.481812,486.168579
	C242.686569,470.276672 226.869217,454.362518 210.800797,438.199280
z"/>
<path fill="#39A9FE" opacity="1.000000" stroke="none"
	d="
M207.725677,191.725662
	C191.719711,207.772919 176.000458,223.607224 160.163559,239.322998
	C158.897873,240.578979 156.822556,241.724518 155.119324,241.730469
	C116.815384,241.864441 78.510887,241.832581 40.206493,241.816589
	C39.779243,241.816406 39.352074,241.613174 38.899502,241.498291
	C89.730263,191.004593 140.445129,140.626022 191.100891,90.306160
	C210.047516,109.293182 229.787033,129.074783 249.956467,149.287231
	C236.079880,163.236862 222.031067,177.359604 207.725677,191.725662
z"/>
<path fill="#39A9FE" opacity="1.000000" stroke="none"
	d="
M243.942261,360.938751
	C225.711929,379.236237 207.731750,397.283691 189.462906,415.620911
	C138.937454,365.520996 88.716438,315.722961 37.599327,265.036377
	C40.110527,265.036377 41.508228,265.036407 42.905930,265.036407
	C79.725548,265.036438 116.545303,264.996948 153.364410,265.133789
	C155.592972,265.142059 158.433151,265.921265 159.950790,267.404083
	C188.903000,295.692169 217.700958,324.138123 246.520081,352.562317
	C247.445251,353.474823 248.256088,354.503265 249.613052,356.033386
	C247.728867,357.651550 245.960648,359.170105 243.942261,360.938751
z"/>
</svg>
